<?xml version="1.0" encoding="UTF-8" standalone="no"?>
<!-- Created with Inkscape (http://www.inkscape.org/) -->

<svg
   xmlns:dc="http://purl.org/dc/elements/1.1/"
   xmlns:cc="http://creativecommons.org/ns#"
   xmlns:rdf="http://www.w3.org/1999/02/22-rdf-syntax-ns#"
   xmlns:svg="http://www.w3.org/2000/svg"
   xmlns="http://www.w3.org/2000/svg"
   xmlns:sodipodi="http://sodipodi.sourceforge.net/DTD/sodipodi-0.dtd"
   xmlns:inkscape="http://www.inkscape.org/namespaces/inkscape"
   width="10cm"
   height="10cm"
   viewBox="0 0 100 100"
   version="1.1"
   id="svg3719"
   sodipodi:docname="keybox.svg"
   inkscape:version="0.92.5 (2060ec1f9f, 2020-04-08)">
  <defs
     id="defs3713" />
  <sodipodi:namedview
     id="base"
     pagecolor="#ffffff"
     bordercolor="#666666"
     borderopacity="1.0"
     inkscape:pageopacity="0.0"
     inkscape:pageshadow="2"
     inkscape:zoom="1"
     inkscape:cx="-193.08068"
     inkscape:cy="223.87547"
     inkscape:document-units="mm"
     inkscape:current-layer="g988"
     showgrid="false"
     inkscape:window-width="1870"
     inkscape:window-height="1051"
     inkscape:window-x="50"
     inkscape:window-y="0"
     inkscape:window-maximized="1"
     inkscape:pagecheckerboard="true"
     units="cm" />
  <metadata
     id="metadata3716">
    <rdf:RDF>
      <cc:Work
         rdf:about="">
        <dc:format>image/svg+xml</dc:format>
        <dc:type
           rdf:resource="http://purl.org/dc/dcmitype/StillImage" />
        <dc:title></dc:title>
      </cc:Work>
    </rdf:RDF>
  </metadata>
  <g
     inkscape:label="Calque 1"
     inkscape:groupmode="layer"
     id="layer1"
     transform="translate(0,-197)">
    <g
       id="g3776"
       transform="matrix(0.06703231,0,0,0.04992158,87.081454,154.86471)" />
    <g
       id="g3778"
       transform="matrix(0.06703231,0,0,0.04992158,87.081454,154.86471)" />
    <g
       id="g3780"
       transform="matrix(0.06703231,0,0,0.04992158,87.081454,154.86471)" />
    <g
       id="g3782"
       transform="matrix(0.06703231,0,0,0.04992158,87.081454,154.86471)" />
    <g
       id="g3784"
       transform="matrix(0.06703231,0,0,0.04992158,87.081454,154.86471)" />
    <g
       id="g3786"
       transform="matrix(0.06703231,0,0,0.04992158,87.081454,154.86471)" />
    <g
       id="g3788"
       transform="matrix(0.06703231,0,0,0.04992158,87.081454,154.86471)" />
    <g
       id="g3790"
       transform="matrix(0.06703231,0,0,0.04992158,87.081454,154.86471)" />
    <g
       id="g3792"
       transform="matrix(0.06703231,0,0,0.04992158,87.081454,154.86471)" />
    <g
       id="g3794"
       transform="matrix(0.06703231,0,0,0.04992158,87.081454,154.86471)" />
    <g
       id="g3796"
       transform="matrix(0.06703231,0,0,0.04992158,87.081454,154.86471)" />
    <g
       id="g3798"
       transform="matrix(0.06703231,0,0,0.04992158,87.081454,154.86471)" />
    <g
       id="g3800"
       transform="matrix(0.06703231,0,0,0.04992158,87.081454,154.86471)" />
    <g
       id="g3802"
       transform="matrix(0.06703231,0,0,0.04992158,87.081454,154.86471)" />
    <g
       id="g3804"
       transform="matrix(0.06703231,0,0,0.04992158,87.081454,154.86471)" />
  </g>
  <g
     inkscape:groupmode="layer"
     id="layer2"
     inkscape:label="rond"
     style="display:inline"
     transform="translate(0,-197)">
    <g
       id="g988"
       transform="translate(-57.679166,94.191667)">
      <g
         id="g1015"
         transform="translate(5.0000003e-7,5.0973194)">
        <path
           style="opacity:0.93999999;fill:#ffffff;fill-opacity:1;stroke:#000000;stroke-width:1.57108402;stroke-linecap:round;stroke-linejoin:round;stroke-miterlimit:4;stroke-dasharray:none;stroke-opacity:1"
           d="m 132.73583,134.92912 c 0,0 1.22373,0.49753 1.62291,0.69229 0.49221,0.24013 3.50981,2.218 3.50981,6.13822 V 179.74 c 0,3.92022 -3.15598,7.0762 -7.0762,7.0762 H 84.565973 c -3.92021,0 -7.076192,-3.15598 -7.076192,-7.0762 v -37.98037 c 0,-3.20435 2.108601,-5.89809 5.019615,-6.77504 l 0.135615,-0.0279"
           id="rect4673"
           inkscape:connector-curvature="0"
           sodipodi:nodetypes="cssssssscc" />
        <text
           transform="scale(0.92062255,1.0862215)"
           id="text4710"
           y="142.91356"
           x="87.693657"
           style="font-style:normal;font-variant:normal;font-weight:normal;font-stretch:normal;font-size:17.53404808px;line-height:1.25;font-family:'OCR A Extended';-inkscape-font-specification:'OCR A Extended, Normal';font-variant-ligatures:normal;font-variant-caps:normal;font-variant-numeric:normal;font-feature-settings:normal;text-align:start;letter-spacing:0px;word-spacing:0px;writing-mode:lr-tb;text-anchor:start;fill:#000000;fill-opacity:1;stroke:none;stroke-width:0.46965504"
           xml:space="preserve"><tspan
             style="font-style:normal;font-variant:normal;font-weight:normal;font-stretch:normal;font-size:16.0730629px;font-family:'OCR A Extended';-inkscape-font-specification:'OCR A Extended, Normal';font-variant-ligatures:normal;font-variant-caps:normal;font-variant-numeric:normal;font-feature-settings:normal;text-align:start;writing-mode:lr-tb;text-anchor:start;stroke-width:0.46965504"
             y="142.91356"
             x="87.693657"
             id="tspan4708"
             sodipodi:role="line">Keybox</tspan></text>
        <path
           style="opacity:0.93999999;fill:none;stroke:#000000;stroke-width:1.57108402;stroke-linecap:round;stroke-linejoin:round;stroke-miterlimit:4;stroke-dasharray:none;stroke-opacity:1"
           d="m 91.368202,134.63154 1.133715,0.0523 31.488203,0.005"
           id="path869"
           inkscape:connector-curvature="0"
           sodipodi:nodetypes="ccc" />
        <g
           id="g4885"
           transform="matrix(-7.5223595e-4,-0.05753093,0.05753093,-7.5223595e-4,93.384922,185.8821)">
          <g
             id="g4828">
            <g
               id="g4826">
              <path
                 id="path4824"
                 d="m 382.616,133.644 h -61.908 c -2.148,0 -4.156,-0.436 -4.156,1.7 v 61.904 c 0,2.14 2.008,3.28 4.156,3.28 h 15.516 v 49.764 l -70.82,69.436 V 113.972 h 27.86 c 0.024,0 0.056,0 0.056,0 2.164,0 3.892,-2.744 3.892,-4.88 0,-0.78 -0.228,-2.016 -0.624,-2.628 L 254.616,2.544 C 254.024,1.088 252.6,0 251.032,0 c -1.58,0 -3,0.892 -3.584,2.352 l -42.24,104.304 c -0.484,1.196 -0.344,3.552 0.376,4.616 0.72,1.068 1.92,2.704 3.208,2.704 h 25.136 v 279.308 l -66.884,-69.672 v -71.948 c 11.804,-5.852 18.888,-17.824 18.888,-31.188 0,-19.208 -15.856,-34.832 -35.06,-34.832 -19.212,0 -34.744,15.62 -34.744,34.832 0,13.364 7.64,25.336 19.444,31.188 v 78.356 c 0,0.992 -0.116,2.008 0.084,3.056 0.084,0.388 0.1,0.756 0.22,1.124 l 0.084,0.436 c 0.116,0.432 0.22,0.868 0.392,1.3 0.196,0.452 0.408,0.88 0.648,1.308 l 0.22,0.392 c 0.164,0.332 0.328,0.664 0.544,0.976 0.584,0.88 1.24,1.676 1.932,2.364 l 85.872,85.868 c -10.568,8.008 -16.964,20.632 -16.964,33.992 0,23.52 19.132,42.652 42.656,42.652 23.516,0 41.976,-19.132 41.976,-42.652 0,-17.776 -12.1,-33.412 -27.836,-39.752 v -57.576 l 96.5,-95.836 c 0.704,-0.7 1.712,-1.504 2.288,-2.38 0.22,-0.308 0.556,-0.64 0.728,-0.976 l 0.296,-0.396 c 0.244,-0.432 0.524,-0.872 0.704,-1.312 0.172,-0.42 0.32,-0.856 0.444,-1.292 l 0.132,-0.432 c 0.124,-0.372 0.532,-0.74 0.616,-1.164 0.196,-1.008 0.58,-2.028 0.58,-3.016 v -56.176 h 14.92 c 2.14,0 4.752,-1.14 4.752,-3.28 v -61.904 c 0.004,-2.136 -2.604,-1.7 -4.744,-1.7 z"
                 inkscape:connector-curvature="0" />
            </g>
          </g>
          <g
             id="g4830" />
          <g
             id="g4832" />
          <g
             id="g4834" />
          <g
             id="g4836" />
          <g
             id="g4838" />
          <g
             id="g4840" />
          <g
             id="g4842" />
          <g
             id="g4844" />
          <g
             id="g4846" />
          <g
             id="g4848" />
          <g
             id="g4850" />
          <g
             id="g4852" />
          <g
             id="g4854" />
          <g
             id="g4856" />
          <g
             id="g4858" />
        </g>
        <path
           style="opacity:0.93999999;fill:#ffffff;fill-opacity:1;stroke:#000000;stroke-width:1.57108402;stroke-linecap:round;stroke-linejoin:round;stroke-miterlimit:4;stroke-dasharray:none;stroke-opacity:1"
           id="path4764"
           sodipodi:type="arc"
           sodipodi:cx="107.67957"
           sodipodi:cy="135.79454"
           sodipodi:rx="25.057705"
           sodipodi:ry="27.188713"
           sodipodi:start="3.1724016"
           sodipodi:end="6.2513499"
           sodipodi:open="true"
           d="m 82.633759,134.95702 a 25.057705,27.188713 0 0 1 25.032951,-26.35119 25.057705,27.188713 0 0 1 25.05787,26.32329" />
        <path
           style="opacity:0.93999999;fill:none;stroke:#000000;stroke-width:1.57108402;stroke-linecap:round;stroke-linejoin:round;stroke-miterlimit:4;stroke-dasharray:none;stroke-opacity:1"
           id="path4764-6"
           sodipodi:type="arc"
           sodipodi:cx="107.67818"
           sodipodi:cy="135.34215"
           sodipodi:rx="16.32309"
           sodipodi:ry="17.711269"
           sodipodi:start="3.181725"
           sodipodi:end="6.2462473"
           sodipodi:open="true"
           d="m 91.368231,134.63154 a 16.32309,17.711269 0 0 1 16.336019,-17.00064 16.32309,17.711269 0 0 1 16.28588,17.05718" />
      </g>
    </g>
  </g>
</svg>
